<svg width="16" height="15" viewBox="0 0 16 15" fill="none" xmlns="http://www.w3.org/2000/svg">
<path fill-rule="evenodd" clip-rule="evenodd" d="M10.6666 5.99984C9.78257 5.99984 8.93472 6.35103 8.3096 6.97615C7.68448 7.60127 7.33329 8.44912 7.33329 9.33317V13.3332H8.66663V9.33317C8.66663 8.80274 8.87734 8.29403 9.25241 7.91896C9.62748 7.54389 10.1362 7.33317 10.6666 7.33317C11.1971 7.33317 11.7058 7.54389 12.0808 7.91896C12.4559 8.29403 12.6666 8.80274 12.6666 9.33317V13.3332H14V9.33317C14 8.44912 13.6488 7.60127 13.0236 6.97615C12.3985 6.35103 11.5507 5.99984 10.6666 5.99984ZM10.6666 4.6665C9.42895 4.6665 8.24196 5.15817 7.36679 6.03334C6.49162 6.90851 5.99996 8.09549 5.99996 9.33317V13.9998C5.99996 14.368 6.29844 14.6665 6.66663 14.6665H9.33329C9.70148 14.6665 9.99996 14.368 9.99996 13.9998V9.33317C9.99996 9.15636 10.0702 8.98679 10.1952 8.86177C10.3202 8.73674 10.4898 8.6665 10.6666 8.6665C10.8434 8.6665 11.013 8.73674 11.138 8.86177C11.2631 8.98679 11.3333 9.15636 11.3333 9.33317V13.9998C11.3333 14.368 11.6318 14.6665 12 14.6665H14.6666C15.0348 14.6665 15.3333 14.368 15.3333 13.9998V9.33317C15.3333 8.09549 14.8416 6.90851 13.9665 6.03334C13.0913 5.15817 11.9043 4.6665 10.6666 4.6665Z" fill="#B83B5E"/>
<path fill-rule="evenodd" clip-rule="evenodd" d="M0.666626 5.99984C0.666626 5.63165 0.965103 5.33317 1.33329 5.33317H3.99996C4.36815 5.33317 4.66663 5.63165 4.66663 5.99984V13.9998C4.66663 14.368 4.36815 14.6665 3.99996 14.6665H1.33329C0.965103 14.6665 0.666626 14.368 0.666626 13.9998V5.99984ZM1.99996 6.6665V13.3332H3.33329V6.6665H1.99996Z" fill="#B83B5E"/>
<path fill-rule="evenodd" clip-rule="evenodd" d="M2.66663 1.99984C2.29844 1.99984 1.99996 2.29831 1.99996 2.6665C1.99996 3.03469 2.29844 3.33317 2.66663 3.33317C3.03482 3.33317 3.33329 3.03469 3.33329 2.6665C3.33329 2.29831 3.03482 1.99984 2.66663 1.99984ZM0.666626 2.6665C0.666626 1.56193 1.56206 0.666504 2.66663 0.666504C3.7712 0.666504 4.66663 1.56193 4.66663 2.6665C4.66663 3.77107 3.7712 4.6665 2.66663 4.6665C1.56206 4.6665 0.666626 3.77107 0.666626 2.6665Z" fill="#B83B5E"/>
</svg>
