<svg width="9" height="16" viewBox="0 0 9 16" fill="none" xmlns="http://www.w3.org/2000/svg">
<path fill-rule="evenodd" clip-rule="evenodd" d="M3.17157 1.83808C3.92172 1.08793 4.93913 0.666504 6 0.666504H8C8.36819 0.666504 8.66667 0.964981 8.66667 1.33317V3.99984C8.66667 4.36803 8.36819 4.6665 8 4.6665H6V5.99984H8C8.20529 5.99984 8.39913 6.09442 8.52547 6.25623C8.65181 6.41804 8.69655 6.62903 8.64676 6.82819L7.98009 9.49486C7.9059 9.79164 7.63924 9.99984 7.33333 9.99984H6V14.6665C6 15.0347 5.70152 15.3332 5.33333 15.3332H2.66667C2.29848 15.3332 2 15.0347 2 14.6665V9.99984H0.666667C0.298477 9.99984 0 9.70136 0 9.33317V6.6665C0 6.29831 0.298477 5.99984 0.666667 5.99984H2V4.6665C2 3.60564 2.42143 2.58822 3.17157 1.83808ZM6 1.99984C5.29276 1.99984 4.61448 2.28079 4.11438 2.78089C3.61428 3.28098 3.33333 3.95926 3.33333 4.6665V6.6665C3.33333 7.03469 3.03486 7.33317 2.66667 7.33317H1.33333V8.6665H2.66667C3.03486 8.6665 3.33333 8.96498 3.33333 9.33317V13.9998H4.66667V9.33317C4.66667 8.96498 4.96514 8.6665 5.33333 8.6665H6.81282L7.14615 7.33317H5.33333C4.96514 7.33317 4.66667 7.03469 4.66667 6.6665V4.6665C4.66667 4.31288 4.80714 3.97374 5.05719 3.72369C5.30724 3.47365 5.64638 3.33317 6 3.33317H7.33333V1.99984H6Z" fill="#B83B5E"/>
</svg>
