<svg width="16" height="14" viewBox="0 0 16 14" fill="none" xmlns="http://www.w3.org/2000/svg">
<path d="M5.53334 13.5998C3.80001 13.5998 2 13.1331 0.400005 12.1998C0.133338 12.0665 4.88557e-06 11.7331 0.0666715 11.4665C0.133338 11.1998 0.400005 10.9998 0.666672 10.9998C1.8 11.0665 2.93334 10.7998 3.93334 10.3331C1.46667 8.7998 0.800005 6.66647 0.733338 4.9998C0.666671 3.06647 1.33334 1.46647 1.4 1.3998C1.46667 1.1998 1.66667 0.999805 1.93334 0.999805C2.2 0.999805 2.4 1.06647 2.53334 1.26647C3.66667 2.86647 5.4 3.86647 7.33334 3.9998C7.33334 2.93314 7.8 1.93314 8.6 1.1998C10 -0.000195247 12.0667 -0.000195247 13.4667 1.1998C14 0.999805 14.5333 0.733138 15 0.399805C15.2 0.266471 15.5333 0.266471 15.7333 0.399805C15.9333 0.533138 16.0667 0.866471 16 1.13314C15.8 2.06647 15.3333 2.93314 14.6667 3.66647C14.6667 3.7998 14.6667 3.86647 14.6667 3.9998C14.6667 7.66647 13.0667 10.7331 10.2 12.3331C8.8 13.1998 7.2 13.5998 5.53334 13.5998ZM3.33334 11.9998C5.53334 12.5331 7.73334 12.2665 9.6 11.1998C12 9.7998 13.4 7.13314 13.4 3.9998C13.4 3.86647 13.4 3.73314 13.3333 3.5998C13.2667 3.3998 13.3333 3.13314 13.5333 2.9998C13.6667 2.86647 13.8 2.66647 13.9333 2.53314C13.8 2.5998 13.6 2.66647 13.4667 2.66647C13.2 2.73314 12.9333 2.66647 12.8 2.46647C11.9333 1.53314 10.4667 1.3998 9.53334 2.26647C8.93334 2.66647 8.66667 3.33314 8.66667 3.9998V4.66647C8.66667 4.9998 8.4 5.33314 8 5.33314C5.8 5.3998 3.73334 4.53314 2.26667 2.9998C1.86667 4.73314 1.73334 7.9998 5.6 9.66647C5.8 9.7998 6 9.9998 6 10.2665C6 10.5331 5.93334 10.7331 5.73334 10.8665C4.93334 11.3998 4.13334 11.7998 3.33334 11.9998Z" fill="#B83B5E"/>
</svg>
