<svg width="16" height="16" viewBox="0 0 16 16" fill="none" xmlns="http://www.w3.org/2000/svg">
<path fill-rule="evenodd" clip-rule="evenodd" d="M4.66663 1.99984C3.19387 1.99984 1.99996 3.19374 1.99996 4.6665V11.3332C1.99996 12.8059 3.19387 13.9998 4.66663 13.9998H11.3333C12.8061 13.9998 14 12.8059 14 11.3332V4.6665C14 3.19374 12.8061 1.99984 11.3333 1.99984H4.66663ZM0.666626 4.6665C0.666626 2.45736 2.45749 0.666504 4.66663 0.666504H11.3333C13.5424 0.666504 15.3333 2.45736 15.3333 4.6665V11.3332C15.3333 13.5423 13.5424 15.3332 11.3333 15.3332H4.66663C2.45749 15.3332 0.666626 13.5423 0.666626 11.3332V4.6665Z" fill="#B83B5E"/>
<path fill-rule="evenodd" clip-rule="evenodd" d="M8.32226 5.99267C7.90614 5.93096 7.48115 6.00204 7.10775 6.19579C6.73435 6.38954 6.43155 6.69609 6.24242 7.07185C6.05329 7.44761 5.98746 7.87344 6.05429 8.28877C6.12113 8.7041 6.31722 9.08778 6.61468 9.38525C6.91214 9.68271 7.29582 9.8788 7.71115 9.94563C8.12648 10.0125 8.55231 9.94663 8.92807 9.7575C9.30383 9.56837 9.61039 9.26557 9.80414 8.89217C9.99789 8.51877 10.069 8.09379 10.0073 7.67767C9.94432 7.2532 9.74653 6.86024 9.44311 6.55682C9.13969 6.2534 8.74672 6.05561 8.32226 5.99267ZM6.49366 5.01229C7.11599 4.68937 7.8243 4.57091 8.51784 4.67375C9.22527 4.77866 9.88021 5.10831 10.3859 5.61401C10.8916 6.11971 11.2213 6.77465 11.3262 7.48209C11.429 8.17563 11.3106 8.88393 10.9876 9.50627C10.6647 10.1286 10.1538 10.6333 9.52753 10.9485C8.90126 11.2637 8.19155 11.3734 7.49933 11.262C6.80711 11.1506 6.16764 10.8238 5.67187 10.3281C5.1761 9.83229 4.84928 9.19282 4.73789 8.5006C4.62651 7.80838 4.73623 7.09867 5.05144 6.4724C5.36666 5.84613 5.87133 5.3352 6.49366 5.01229Z" fill="#B83B5E"/>
</svg>
