<svg width="28" height="22" viewBox="0 0 28 22" fill="none" xmlns="http://www.w3.org/2000/svg">
<path d="M25.0787 18.6106C27.5947 15.8799 27.3413 12.3733 27.3333 12.3333V1.66659C27.3333 1.31296 27.1929 0.973825 26.9428 0.723776C26.6928 0.473728 26.3536 0.333252 26 0.333252H18C16.5293 0.333252 15.3333 1.52925 15.3333 2.99992V12.3333C15.3333 12.6869 15.4738 13.026 15.7239 13.2761C15.9739 13.5261 16.3131 13.6666 16.6667 13.6666H20.7707C20.7425 14.3258 20.5456 14.9667 20.1987 15.5279C19.5213 16.5959 18.2453 17.3253 16.404 17.6933L15.3333 17.9066V21.6666H16.6667C20.3773 21.6666 23.208 20.6386 25.0787 18.6106ZM10.4027 18.6106C12.92 15.8799 12.6653 12.3733 12.6573 12.3333V1.66659C12.6573 1.31296 12.5169 0.973825 12.2668 0.723776C12.0168 0.473728 11.6776 0.333252 11.324 0.333252H3.32402C1.85335 0.333252 0.657349 1.52925 0.657349 2.99992V12.3333C0.657349 12.6869 0.797824 13.026 1.04787 13.2761C1.29792 13.5261 1.63706 13.6666 1.99068 13.6666H6.09468C6.06651 14.3258 5.86956 14.9667 5.52268 15.5279C4.84535 16.5959 3.56935 17.3253 1.72802 17.6933L0.657349 17.9066V21.6666H1.99068C5.70135 21.6666 8.53202 20.6386 10.4027 18.6106Z" fill="#B83B5E"/>
</svg>
