<svg width="18" height="18" viewBox="0 0 18 18" fill="none" xmlns="http://www.w3.org/2000/svg">
<path fill-rule="evenodd" clip-rule="evenodd" d="M12 6.75C11.0054 6.75 10.0516 7.14509 9.34835 7.84835C8.64509 8.55161 8.25 9.50544 8.25 10.5V15H9.75V10.5C9.75 9.90326 9.98705 9.33097 10.409 8.90901C10.831 8.48705 11.4033 8.25 12 8.25C12.5967 8.25 13.169 8.48705 13.591 8.90901C14.0129 9.33097 14.25 9.90326 14.25 10.5V15H15.75V10.5C15.75 9.50544 15.3549 8.55161 14.6517 7.84835C13.9484 7.14509 12.9946 6.75 12 6.75ZM12 5.25C10.6076 5.25 9.27226 5.80312 8.28769 6.78769C7.30312 7.77226 6.75 9.10761 6.75 10.5V15.75C6.75 16.1642 7.08579 16.5 7.5 16.5H10.5C10.9142 16.5 11.25 16.1642 11.25 15.75V10.5C11.25 10.3011 11.329 10.1103 11.4697 9.96967C11.6103 9.82902 11.8011 9.75 12 9.75C12.1989 9.75 12.3897 9.82902 12.5303 9.96967C12.671 10.1103 12.75 10.3011 12.75 10.5V15.75C12.75 16.1642 13.0858 16.5 13.5 16.5H16.5C16.9142 16.5 17.25 16.1642 17.25 15.75V10.5C17.25 9.10761 16.6969 7.77226 15.7123 6.78769C14.7277 5.80312 13.3924 5.25 12 5.25Z" fill="#333333"/>
<path fill-rule="evenodd" clip-rule="evenodd" d="M0.75 6.75C0.75 6.33579 1.08579 6 1.5 6H4.5C4.91421 6 5.25 6.33579 5.25 6.75V15.75C5.25 16.1642 4.91421 16.5 4.5 16.5H1.5C1.08579 16.5 0.75 16.1642 0.75 15.75V6.75ZM2.25 7.5V15H3.75V7.5H2.25Z" fill="#333333"/>
<path fill-rule="evenodd" clip-rule="evenodd" d="M3 2.25C2.58579 2.25 2.25 2.58579 2.25 3C2.25 3.41421 2.58579 3.75 3 3.75C3.41421 3.75 3.75 3.41421 3.75 3C3.75 2.58579 3.41421 2.25 3 2.25ZM0.75 3C0.75 1.75736 1.75736 0.75 3 0.75C4.24264 0.75 5.25 1.75736 5.25 3C5.25 4.24264 4.24264 5.25 3 5.25C1.75736 5.25 0.75 4.24264 0.75 3Z" fill="#333333"/>
</svg>
