<svg width="18" height="18" viewBox="0 0 18 18" fill="none" xmlns="http://www.w3.org/2000/svg">
<g clip-path="url(#clip0)">
<path d="M6.22502 16.4249C4.27502 16.4249 2.25002 15.8999 0.450021 14.8499C0.150021 14.6999 2.07573e-05 14.3249 0.0750208 14.0249C0.150021 13.7249 0.450021 13.4999 0.750021 13.4999C2.02502 13.5749 3.30002 13.2749 4.42502 12.7499C1.65002 11.0249 0.900021 8.6249 0.825021 6.7499C0.750021 4.5749 1.50002 2.7749 1.57502 2.6999C1.65002 2.4749 1.87502 2.2499 2.17502 2.2499C2.47502 2.2499 2.70002 2.3249 2.85002 2.5499C4.12502 4.3499 6.07502 5.4749 8.25002 5.6249C8.25002 4.4249 8.77502 3.2999 9.67502 2.4749C11.25 1.1249 13.575 1.1249 15.15 2.4749C15.75 2.2499 16.35 1.9499 16.875 1.5749C17.1 1.4249 17.475 1.4249 17.7 1.5749C17.925 1.7249 18.075 2.0999 18 2.3999C17.775 3.4499 17.25 4.4249 16.5 5.2499C16.5 5.3999 16.5 5.4749 16.5 5.6249C16.5 9.7499 14.7 13.1999 11.475 14.9999C9.90002 15.9749 8.10002 16.4249 6.22502 16.4249ZM3.75002 14.6249C6.22502 15.2249 8.70002 14.9249 10.8 13.7249C13.5 12.1499 15.075 9.1499 15.075 5.6249C15.075 5.4749 15.075 5.3249 15 5.1749C14.925 4.9499 15 4.6499 15.225 4.4999C15.375 4.3499 15.525 4.1249 15.675 3.9749C15.525 4.0499 15.3 4.1249 15.15 4.1249C14.85 4.1999 14.55 4.1249 14.4 3.8999C13.425 2.8499 11.775 2.6999 10.725 3.6749C10.05 4.1249 9.75002 4.8749 9.75002 5.6249V6.3749C9.75002 6.7499 9.45002 7.1249 9.00002 7.1249C6.52502 7.1999 4.20002 6.2249 2.55002 4.4999C2.10002 6.4499 1.95002 10.1249 6.30002 11.9999C6.52502 12.1499 6.75002 12.3749 6.75002 12.6749C6.75002 12.9749 6.67502 13.1999 6.45002 13.3499C5.55002 13.9499 4.65002 14.3999 3.75002 14.6249Z" fill="#333333"/>
</g>
<defs>
<clipPath id="clip0">
<rect width="18" height="18" fill="white"/>
</clipPath>
</defs>
</svg>
