<svg width="18" height="18" viewBox="0 0 18 18" fill="none" xmlns="http://www.w3.org/2000/svg">
<path fill-rule="evenodd" clip-rule="evenodd" d="M5.25 2.25C3.59315 2.25 2.25 3.59315 2.25 5.25V12.75C2.25 14.4069 3.59315 15.75 5.25 15.75H12.75C14.4069 15.75 15.75 14.4069 15.75 12.75V5.25C15.75 3.59315 14.4069 2.25 12.75 2.25H5.25ZM0.75 5.25C0.75 2.76472 2.76472 0.75 5.25 0.75H12.75C15.2353 0.75 17.25 2.76472 17.25 5.25V12.75C17.25 15.2353 15.2353 17.25 12.75 17.25H5.25C2.76472 17.25 0.75 15.2353 0.75 12.75V5.25Z" fill="#333333"/>
<path fill-rule="evenodd" clip-rule="evenodd" d="M9.36251 6.74211C8.89438 6.6727 8.41627 6.75266 7.99619 6.97063C7.57612 7.18859 7.23547 7.53347 7.0227 7.9562C6.80992 8.37893 6.73586 8.85799 6.81105 9.32523C6.88624 9.79248 7.10684 10.2241 7.44148 10.5588C7.77613 10.8934 8.20777 11.114 8.67502 11.1892C9.14226 11.2644 9.62132 11.1903 10.0441 10.9776C10.4668 10.7648 10.8117 10.4241 11.0296 10.0041C11.2476 9.58399 11.3276 9.10588 11.2581 8.63774C11.1873 8.16022 10.9648 7.71814 10.6235 7.37679C10.2821 7.03544 9.84003 6.81292 9.36251 6.74211ZM7.30534 5.63919C8.00546 5.27591 8.80231 5.14264 9.58254 5.25834C10.3784 5.37636 11.1152 5.74721 11.6841 6.31613C12.253 6.88504 12.6239 7.62185 12.7419 8.41771C12.8576 9.19795 12.7243 9.99479 12.3611 10.6949C11.9978 11.395 11.423 11.9628 10.7184 12.3174C10.0139 12.672 9.21546 12.7955 8.43671 12.6702C7.65797 12.5448 6.93856 12.1772 6.38082 11.6194C5.82309 11.0617 5.45541 10.3423 5.3301 9.56354C5.20479 8.78479 5.32822 7.98636 5.68284 7.28181C6.03746 6.57726 6.60521 6.00247 7.30534 5.63919Z" fill="#333333"/>
</svg>
