<svg width="18" height="18" viewBox="0 0 18 18" fill="none" xmlns="http://www.w3.org/2000/svg">
<path fill-rule="evenodd" clip-rule="evenodd" d="M8.06802 2.06802C8.91193 1.22411 10.0565 0.75 11.25 0.75H13.5C13.9142 0.75 14.25 1.08579 14.25 1.5V4.5C14.25 4.91421 13.9142 5.25 13.5 5.25H11.25V6.75H13.5C13.731 6.75 13.949 6.8564 14.0912 7.03844C14.2333 7.22048 14.2836 7.45785 14.2276 7.6819L13.4776 10.6819C13.3941 11.0158 13.0942 11.25 12.75 11.25H11.25V16.5C11.25 16.9142 10.9142 17.25 10.5 17.25H7.5C7.08579 17.25 6.75 16.9142 6.75 16.5V11.25H5.25C4.83579 11.25 4.5 10.9142 4.5 10.5V7.5C4.5 7.08579 4.83579 6.75 5.25 6.75H6.75V5.25C6.75 4.05653 7.22411 2.91193 8.06802 2.06802ZM11.25 2.25C10.4544 2.25 9.69129 2.56607 9.12868 3.12868C8.56607 3.69129 8.25 4.45435 8.25 5.25V7.5C8.25 7.91421 7.91421 8.25 7.5 8.25H6V9.75H7.5C7.91421 9.75 8.25 10.0858 8.25 10.5V15.75H9.75V10.5C9.75 10.0858 10.0858 9.75 10.5 9.75H12.1644L12.5394 8.25H10.5C10.0858 8.25 9.75 7.91421 9.75 7.5V5.25C9.75 4.85217 9.90804 4.47064 10.1893 4.18934C10.4706 3.90804 10.8522 3.75 11.25 3.75H12.75V2.25H11.25Z" fill="#333333"/>
</svg>
